<svg id="4e91755b-a19f-4132-b756-471aa04a5a1b" data-name="Calque 1" xmlns="http://www.w3.org/2000/svg" xmlns:xlink="http://www.w3.org/1999/xlink" width="70.1" height="66.2" viewBox="0 0 70.1 66.2"><defs><style>.\30 09d0f05-15b2-4dd7-9a14-18181ef3e328,.\31 9c53ccb-c1c4-4ba1-8c29-d004991b93a2,.\32 8638a1e-17c7-4e2a-acd0-84055f5d126a,.\35 38556b7-b1a4-4ac8-b772-e0e1242d44b6,.\35 e4a02a0-becb-470c-ab89-93e0d3f938dc,.\36 ab63bd4-fd32-49bf-852d-cc3e92c8cb76,.\36 c4dff7e-76f9-4d37-ae90-918c8afb63df,.\37 c6c85e7-b5cb-4d24-b6d1-f15450b2c7de,.a032a441-8444-4f10-a5fe-3c997cfaf027,.ab848bc9-4d10-4f1a-a1b2-836b82d7111f,.b23e2743-8bd2-41ce-9adf-0b6ee3ca5b46,.b4d7f75c-f65f-453b-b667-f14b95b71902,.bba8bd56-455d-433f-8e8c-0a6ffb8a3ab5,.cc67b393-d640-45eb-a334-e84f41c8c80b,.d1e9ff86-619c-45a3-9092-1083b92f5c74,.d36cad2d-aa2d-41b5-9582-4151c66a9282,.d3a252f0-bab9-42bc-893c-6739a543ae4d,.da38c4c3-6caa-4655-8565-0abd781913dd,.e4a08a05-19d8-493c-89e5-306bc2fce0a7{fill-rule:evenodd;}.\37 c6c85e7-b5cb-4d24-b6d1-f15450b2c7de{fill:url(#d10c2134-dd25-460c-83c4-51098539c420);}.ab848bc9-4d10-4f1a-a1b2-836b82d7111f{fill:url(#dd710b72-aaee-42ea-ad0c-a8ab4160991e);}.da38c4c3-6caa-4655-8565-0abd781913dd{fill:url(#2eb53a7c-3e8e-483b-a4bb-cb7622204bad);}.e4a08a05-19d8-493c-89e5-306bc2fce0a7{fill:url(#e7c0a131-26a8-49ee-83c8-6806810422f5);}.\30 09d0f05-15b2-4dd7-9a14-18181ef3e328{fill:url(#16842638-fbc7-40ba-af3c-4b7e6c96cfd6);}.d36cad2d-aa2d-41b5-9582-4151c66a9282{fill:url(#4e39f141-f531-4437-9f12-ab66be281a42);}.cc67b393-d640-45eb-a334-e84f41c8c80b{fill:url(#5c593450-d5c7-4d7a-b0ac-81a8f3b47fe3);}.\31 9c53ccb-c1c4-4ba1-8c29-d004991b93a2{fill:url(#bc463cdd-496f-4449-a049-f4ba0f3ff397);}.\32 8638a1e-17c7-4e2a-acd0-84055f5d126a{fill:url(#b8acfb58-6a0c-4f93-aaa4-8fed53240175);}.b4d7f75c-f65f-453b-b667-f14b95b71902{fill:url(#e794b530-acb3-46fe-8bf8-ee8665005065);}.d1e9ff86-619c-45a3-9092-1083b92f5c74{fill:url(#6f056022-7bf5-4987-9a11-97f386d4464a);}.b23e2743-8bd2-41ce-9adf-0b6ee3ca5b46{fill:url(#91c478ff-b3d4-4b38-bcb3-fde41393059b);}.a032a441-8444-4f10-a5fe-3c997cfaf027{fill:url(#ee38c96c-7155-4b86-bf05-397bb2169bfc);}.\35 38556b7-b1a4-4ac8-b772-e0e1242d44b6{fill:url(#fabe9ef1-b125-408b-8b27-e5babde53385);}.bba8bd56-455d-433f-8e8c-0a6ffb8a3ab5{fill:url(#11374507-5559-437d-b38d-4d7214a5cea8);}.d3a252f0-bab9-42bc-893c-6739a543ae4d{fill:url(#84533c27-627a-4907-a03f-c7ae30452700);}.\36 c4dff7e-76f9-4d37-ae90-918c8afb63df{fill:url(#8b6ab2ef-3b98-4a05-911e-bdd6257794d5);}.\36 ab63bd4-fd32-49bf-852d-cc3e92c8cb76{fill:url(#edfe3fc5-c8ed-4860-8143-9a8096462f38);}.\35 e4a02a0-becb-470c-ab89-93e0d3f938dc{fill:url(#f69c17df-7220-41c8-884d-8bdd80f15daa);}</style><linearGradient id="d10c2134-dd25-460c-83c4-51098539c420" x1="50.22" y1="33.74" x2="15.72" y2="2.12" gradientUnits="userSpaceOnUse"><stop offset="0" stop-color="#ee4085"/><stop offset="1" stop-color="#f47b20"/></linearGradient><linearGradient id="dd710b72-aaee-42ea-ad0c-a8ab4160991e" x1="57.12" y1="26.21" x2="22.62" y2="-5.41" xlink:href="#d10c2134-dd25-460c-83c4-51098539c420"/><linearGradient id="2eb53a7c-3e8e-483b-a4bb-cb7622204bad" x1="44.24" y1="40.26" x2="9.74" y2="8.63" xlink:href="#d10c2134-dd25-460c-83c4-51098539c420"/><linearGradient id="e7c0a131-26a8-49ee-83c8-6806810422f5" x1="50.83" y1="33.07" x2="16.33" y2="1.44" xlink:href="#d10c2134-dd25-460c-83c4-51098539c420"/><linearGradient id="16842638-fbc7-40ba-af3c-4b7e6c96cfd6" x1="43.54" y1="41.03" x2="9.04" y2="9.4" xlink:href="#d10c2134-dd25-460c-83c4-51098539c420"/><linearGradient id="4e39f141-f531-4437-9f12-ab66be281a42" x1="57.89" y1="25.37" x2="23.39" y2="-6.26" xlink:href="#d10c2134-dd25-460c-83c4-51098539c420"/><linearGradient id="5c593450-d5c7-4d7a-b0ac-81a8f3b47fe3" x1="37.18" y1="47.97" x2="2.68" y2="16.34" xlink:href="#d10c2134-dd25-460c-83c4-51098539c420"/><linearGradient id="bc463cdd-496f-4449-a049-f4ba0f3ff397" x1="42.48" y1="42.18" x2="7.98" y2="10.56" xlink:href="#d10c2134-dd25-460c-83c4-51098539c420"/><linearGradient id="b8acfb58-6a0c-4f93-aaa4-8fed53240175" x1="50" y1="33.98" x2="15.5" y2="2.36" xlink:href="#d10c2134-dd25-460c-83c4-51098539c420"/><linearGradient id="e794b530-acb3-46fe-8bf8-ee8665005065" x1="35.15" y1="50.18" x2="0.65" y2="18.55" xlink:href="#d10c2134-dd25-460c-83c4-51098539c420"/><linearGradient id="6f056022-7bf5-4987-9a11-97f386d4464a" x1="29.07" y1="56.81" x2="-5.43" y2="25.19" xlink:href="#d10c2134-dd25-460c-83c4-51098539c420"/><linearGradient id="91c478ff-b3d4-4b38-bcb3-fde41393059b" x1="56.57" y1="26.81" x2="22.07" y2="-4.82" xlink:href="#d10c2134-dd25-460c-83c4-51098539c420"/><linearGradient id="ee38c96c-7155-4b86-bf05-397bb2169bfc" x1="34.4" y1="51" x2="-0.1" y2="19.37" xlink:href="#d10c2134-dd25-460c-83c4-51098539c420"/><linearGradient id="fabe9ef1-b125-408b-8b27-e5babde53385" x1="41.99" y1="42.71" x2="7.49" y2="11.09" xlink:href="#d10c2134-dd25-460c-83c4-51098539c420"/><linearGradient id="11374507-5559-437d-b38d-4d7214a5cea8" x1="27.28" y1="58.77" x2="-7.22" y2="27.14" xlink:href="#d10c2134-dd25-460c-83c4-51098539c420"/><linearGradient id="84533c27-627a-4907-a03f-c7ae30452700" x1="48.51" y1="35.61" x2="14.01" y2="3.98" xlink:href="#d10c2134-dd25-460c-83c4-51098539c420"/><linearGradient id="8b6ab2ef-3b98-4a05-911e-bdd6257794d5" x1="28.38" y1="57.56" x2="-6.12" y2="25.93" xlink:href="#d10c2134-dd25-460c-83c4-51098539c420"/><linearGradient id="edfe3fc5-c8ed-4860-8143-9a8096462f38" x1="35.23" y1="50.09" x2="0.73" y2="18.46" xlink:href="#d10c2134-dd25-460c-83c4-51098539c420"/><linearGradient id="f69c17df-7220-41c8-884d-8bdd80f15daa" x1="41.65" y1="43.09" x2="7.15" y2="11.46" xlink:href="#d10c2134-dd25-460c-83c4-51098539c420"/></defs><title>favicon2</title><path class="7c6c85e7-b5cb-4d24-b6d1-f15450b2c7de" d="M15.8,1.9h7.4V9.4H15.8Z" transform="translate(0 -1.9)"/><path class="ab848bc9-4d10-4f1a-a1b2-836b82d7111f" d="M31,1.9h7.4V9.4H31Z" transform="translate(0 -1.9)"/><path class="da38c4c3-6caa-4655-8565-0abd781913dd" d="M3.4,2.6H9.6v6H3.4Z" transform="translate(0 -1.9)"/><path class="e4a08a05-19d8-493c-89e5-306bc2fce0a7" d="M29,12.7H40.8V24.2H29Z" transform="translate(0 -1.9)"/><path class="009d0f05-15b2-4dd7-9a14-18181ef3e328" d="M14.4,13.9H24v9.6H14.4Z" transform="translate(0 -1.9)"/><path class="d36cad2d-aa2d-41b5-9582-4151c66a9282" d="M45.8,13.9h9.6v9.6H45.8Z" transform="translate(0 -1.9)"/><path class="cc67b393-d640-45eb-a334-e84f41c8c80b" d="M2.2,15.6H8.6v6.5H2.2Z" transform="translate(0 -1.9)"/><path class="19c53ccb-c1c4-4ba1-8c29-d004991b93a2" d="M28.1,28.3H41V41.5h-13Z" transform="translate(0 -1.9)"/><path class="28638a1e-17c7-4e2a-acd0-84055f5d126a" d="M44.6,28.6H56.9V40.8H44.6Z" transform="translate(0 -1.9)"/><path class="b4d7f75c-f65f-453b-b667-f14b95b71902" d="M12.2,28.8h12V40.6h-12Z" transform="translate(0 -1.9)"/><path class="d1e9ff86-619c-45a3-9092-1083b92f5c74" d="M0,29.8H9.8v9.8H0Z" transform="translate(0 -1.9)"/><path class="b23e2743-8bd2-41ce-9adf-0b6ee3ca5b46" d="M60.2,29.8h9.8v9.8H60.2Z" transform="translate(0 -1.9)"/><path class="a032a441-8444-4f10-a5fe-3c997cfaf027" d="M29,45.6H40.8V57.4H29Z" transform="translate(0 -1.9)"/><path class="538556b7-b1a4-4ac8-b772-e0e1242d44b6" d="M45.6,45.6H55.7V55.7H45.6Z" transform="translate(0 -1.9)"/><path class="bba8bd56-455d-433f-8e8c-0a6ffb8a3ab5" d="M14.4,46.6H24v9.6H14.4Z" transform="translate(0 -1.9)"/><path class="d3a252f0-bab9-42bc-893c-6739a543ae4d" d="M61.9,47.8h6.2v6H61.9Z" transform="translate(0 -1.9)"/><path class="6c4dff7e-76f9-4d37-ae90-918c8afb63df" d="M31.9,60.5h7.7v7.7H31.9Z" transform="translate(0 -1.9)"/><path class="6ab63bd4-fd32-49bf-852d-cc3e92c8cb76" d="M47,60.7h7.4v7.2H47Z" transform="translate(0 -1.9)"/><path class="5e4a02a0-becb-470c-ab89-93e0d3f938dc" d="M61.7,61.2h6v6h-6Z" transform="translate(0 -1.9)"/></svg>